# Blender v2.82 (sub 7) OBJ File: 'untitled.blend'
# www.blender.org
mtllib Backpack.mtl
o Backpack_Cube.002
v -0.323901 -0.392597 -0.525147
v -0.323901 -0.321559 -0.453192
v -0.395456 -0.321559 -0.525147
v -0.323901 0.321559 -0.453192
v -0.323901 0.392597 -0.525147
v -0.395456 0.321559 -0.525147
v -0.323901 -0.392597 -1.176571
v -0.395456 -0.321559 -1.176571
v -0.323901 -0.321559 -1.248526
v -0.323901 0.392597 -1.176571
v -0.323901 0.321559 -1.248526
v -0.395456 0.321559 -1.176571
v 0.323901 -0.392597 -0.525147
v 0.395456 -0.321559 -0.525147
v 0.323901 -0.321559 -0.453192
v 0.323901 0.392597 -0.525147
v 0.323901 0.321559 -0.453192
v 0.395456 0.321559 -0.525147
v 0.323901 -0.392597 -1.176571
v 0.323901 -0.321559 -1.248526
v 0.395456 -0.321559 -1.176571
v 0.323901 0.392597 -1.176571
v 0.395456 0.321559 -1.176571
v 0.323901 0.321559 -1.248526
v 0.229518 -21250.843750 -2.811529
v -0.229518 -21250.843750 -2.811529
v 0.229518 -21250.843750 -1.852639
v -0.229518 -21250.843750 -1.852639
v 0.229518 -21251.052734 -2.811529
v -0.229518 -21251.052734 -2.811529
v 0.229518 -21251.052734 -1.852639
v -0.229518 -21251.052734 -1.852639
v -0.155972 0.045325 -0.612157
v -0.156286 0.043000 -0.637324
v -0.323901 -0.321559 -0.453192
v -0.323901 0.321559 -0.453192
v 0.323901 -0.321559 -0.453192
v 0.323901 0.321559 -0.453192
vt 0.397618 0.522618
vt 0.602382 0.522618
vt 0.602382 0.727382
vt 0.397618 0.727382
vt 0.647618 0.522618
vt 0.852382 0.522618
vt 0.852382 0.727382
vt 0.647618 0.727382
vt 0.397618 0.022618
vt 0.602382 0.022618
vt 0.602382 0.227382
vt 0.397618 0.227382
vt 0.397618 0.272618
vt 0.602382 0.272618
vt 0.602382 0.477382
vt 0.397618 0.477382
vt 0.147618 0.727382
vt 0.147618 0.750000
vt 0.125000 0.727382
vt 0.602382 0.977382
vt 0.625000 0.977382
vt 0.602382 1.000000
vt 0.147618 0.522618
vt 0.125000 0.522618
vt 0.147618 0.500000
vt 0.852382 0.500000
vt 0.875000 0.522618
vt 0.352382 0.727382
vt 0.375000 0.727382
vt 0.352382 0.750000
vt 0.647618 0.750000
vt 0.625000 0.727382
vt 0.352382 0.522618
vt 0.352382 0.500000
vt 0.375000 0.522618
vt 0.625000 0.522618
vt 0.647618 0.500000
vt 0.397618 0.977382
vt 0.397618 1.000000
vt 0.875000 0.727382
vt 0.602382 0.772618
vt 0.397618 0.772618
vt 0.852382 0.750000
vt 0.375000 0.000000
vt 0.625000 0.000000
vt 0.625000 0.250000
vt 0.375000 0.250000
vt 0.625000 0.500000
vt 0.375000 0.500000
vt 0.625000 0.750000
vt 0.375000 0.750000
vt 0.625000 1.000000
vt 0.375000 1.000000
vt 0.125000 0.500000
vt 0.125000 0.750000
vt 0.875000 0.500000
vt 0.875000 0.750000
vt 0.397618 0.772618
vt 0.602382 0.772618
vt 0.602382 0.977382
vt 0.397618 0.977382
vn 1.0000 0.0000 0.0000
vn 0.0000 1.0000 0.0000
vn -1.0000 0.0000 0.0000
vn 0.0000 0.0000 -1.0000
vn -0.5770 -0.5812 0.5738
vn -0.5770 0.5812 0.5738
vn -0.5770 -0.5812 -0.5738
vn -0.5770 0.5812 -0.5738
vn 0.5770 -0.5812 0.5738
vn 0.5770 0.5812 0.5738
vn 0.5770 -0.5812 -0.5738
vn 0.5770 0.5812 -0.5738
vn -0.7045 -0.7097 0.0000
vn -0.7091 0.0000 0.7051
vn -0.7045 0.7097 0.0000
vn -0.7091 0.0000 -0.7051
vn 0.0000 -0.7116 -0.7026
vn 0.0000 0.7116 -0.7026
vn 0.7091 0.0000 -0.7051
vn 0.7045 -0.7097 0.0000
vn 0.7045 0.7097 0.0000
vn 0.7091 0.0000 0.7051
vn 0.0000 -0.7116 0.7026
vn 0.0000 0.7116 0.7026
vn 0.0000 -1.0000 0.0000
vn 0.0000 0.0000 1.0000
usemtl None
s off
f 21/1/1 23/2/1 18/3/1 14/4/1
f 22/5/2 10/6/2 5/7/2 16/8/2
f 3/9/3 6/10/3 12/11/3 8/12/3
f 9/13/4 11/14/4 24/15/4 20/16/4
f 1/17/5 2/18/5 3/19/5
f 4/20/6 5/21/6 6/22/6
f 7/23/7 8/24/7 9/25/7
f 10/6/8 11/26/8 12/27/8
f 13/28/9 14/29/9 15/30/9
f 16/8/10 17/31/10 18/32/10
f 19/33/11 20/34/11 21/35/11
f 22/5/12 23/36/12 24/37/12
f 7/23/13 1/17/13 3/19/13 8/24/13
f 2/38/14 4/20/14 6/22/14 3/39/14
f 5/7/15 10/6/15 12/27/15 6/40/15
f 11/14/16 9/13/16 8/12/16 12/11/16
f 19/33/17 7/23/17 9/25/17 20/34/17
f 10/6/18 22/5/18 24/37/18 11/26/18
f 23/2/19 21/1/19 20/16/19 24/15/19
f 13/28/20 19/33/20 21/1/20 14/4/20
f 22/5/21 16/8/21 18/3/21 23/2/21
f 17/41/22 15/42/22 14/4/22 18/3/22
f 1/17/23 13/28/23 15/30/23 2/18/23
f 16/8/24 5/7/24 4/43/24 17/31/24
f 7/23/25 19/33/25 13/28/25 1/17/25
f 25/44/2 26/45/2 28/46/2 27/47/2
f 27/47/26 28/46/26 32/48/26 31/49/26
f 31/49/25 32/48/25 30/50/25 29/51/25
f 29/51/4 30/50/4 26/52/4 25/53/4
f 27/54/1 31/49/1 29/51/1 25/55/1
f 32/48/3 28/56/3 26/57/3 30/50/3
f 37/58/26 38/59/26 36/60/26 35/61/26
l 33 34
