# Blender v2.82 (sub 7) OBJ File: ''
# www.blender.org
mtllib head.mtl
o head_Cube.003
v 0.348745 -0.196160 -0.050108
v 0.345686 -0.196806 0.092159
v 0.235277 -0.406467 0.103883
v 0.207659 -0.416696 0.223785
v 0.265458 -0.346713 0.269343
v 0.184016 -0.391721 0.350560
v 0.173745 -0.439723 0.290589
v 0.188205 -0.384883 -0.039613
v 0.245238 -0.224766 -0.244620
v 0.348745 -0.150044 -0.168384
v 0.348745 0.005361 -0.250285
v 0.245238 -0.026523 -0.392215
v 0.239176 0.167192 -0.395858
v 0.348745 0.142102 -0.224211
v 0.231546 0.377391 -0.292770
v 0.348745 0.242034 -0.166380
v 0.231546 0.467037 -0.085724
v 0.348745 0.289718 -0.036448
v 0.238588 0.479032 0.062722
v 0.343539 0.279957 0.184956
v 0.387434 0.104195 0.120633
v 0.384692 0.131343 -0.029998
v 0.393844 -0.072072 0.098479
v 0.391590 -0.056747 -0.057434
v 0.083608 -0.429297 0.430120
v 0.071391 -0.477889 0.374103
v 0.000000 -0.451491 0.453901
v 0.000000 -0.489970 0.374815
v 0.091934 -0.349268 0.450136
v 0.000000 -0.368656 0.480277
v 0.196559 -0.301167 0.388109
v 0.076365 -0.187785 0.459969
v 0.000000 -0.198959 0.479484
v 0.196109 -0.160432 0.395056
v 0.000000 -0.122838 0.543505
v 0.000000 0.032172 0.452629
v 0.198556 0.260008 0.380280
v 0.000000 0.261437 0.443764
v 0.000000 0.102836 0.465787
v 0.208971 0.110556 0.412727
v 0.190005 0.446983 0.220535
v 0.000000 0.377183 0.398538
v 0.173290 0.358087 0.346900
v 0.000000 0.529423 0.065944
v 0.000000 0.481069 0.255393
v 0.000000 0.518513 -0.117131
v 0.000000 0.419603 -0.326461
v 0.000000 0.185589 -0.452412
v 0.000000 -0.032172 -0.452629
v 0.000000 -0.463268 -0.067646
v 0.000000 -0.270714 -0.302262
v 0.000000 -0.477116 0.084754
v 0.000000 -0.477975 0.182396
v 0.000000 -0.488575 0.276130
v 0.098257 0.024445 0.397178
v 0.214375 0.059901 0.375364
v 0.099894 -0.026189 0.396645
v 0.208792 -0.045497 0.360685
v 0.331069 0.097995 0.293910
v 0.289537 0.041004 0.313000
v 0.366034 0.042654 0.244576
v 0.290790 -0.022857 0.308335
v 0.297888 -0.135392 0.328583
v 0.287621 -0.256112 0.305964
v 0.357331 -0.083234 0.217856
v 0.348146 -0.205499 0.202657
v 0.300031 -0.329411 0.178378
v -0.348745 -0.196160 -0.050108
v -0.235277 -0.406467 0.103883
v -0.345686 -0.196806 0.092159
v -0.207659 -0.416696 0.223785
v -0.173745 -0.439723 0.290589
v -0.184016 -0.391721 0.350560
v -0.265458 -0.346713 0.269343
v -0.348745 -0.150044 -0.168384
v -0.245238 -0.224766 -0.244620
v -0.188205 -0.384883 -0.039613
v -0.348745 0.005361 -0.250285
v -0.348745 0.142102 -0.224211
v -0.239176 0.167192 -0.395858
v -0.245238 -0.026523 -0.392215
v -0.348745 0.242034 -0.166380
v -0.231546 0.377391 -0.292770
v -0.348745 0.289718 -0.036448
v -0.231546 0.467037 -0.085724
v -0.343539 0.279957 0.184956
v -0.238588 0.479032 0.062722
v -0.387434 0.104195 0.120633
v -0.384692 0.131343 -0.029998
v -0.393844 -0.072072 0.098479
v -0.391590 -0.056747 -0.057434
v -0.071391 -0.477889 0.374103
v -0.083608 -0.429297 0.430120
v -0.091934 -0.349268 0.450136
v -0.196559 -0.301167 0.388109
v -0.076365 -0.187785 0.459969
v -0.196109 -0.160432 0.395056
v -0.198556 0.260008 0.380280
v -0.208971 0.110556 0.412727
v -0.190005 0.446983 0.220535
v -0.173290 0.358087 0.346900
v -0.214375 0.059901 0.375364
v -0.098257 0.024445 0.397178
v -0.099894 -0.026189 0.396645
v -0.208792 -0.045497 0.360685
v -0.331069 0.097995 0.293910
v -0.289537 0.041004 0.313000
v -0.366034 0.042654 0.244576
v -0.290790 -0.022857 0.308335
v -0.297888 -0.135392 0.328583
v -0.287621 -0.256112 0.305964
v -0.357331 -0.083234 0.217856
v -0.348146 -0.205499 0.202657
v -0.300031 -0.329411 0.178378
vt 0.622926 0.270421
vt 0.559980 0.230590
vt 0.623345 0.127074
vt 0.576081 0.085934
vt 0.530095 0.109968
vt 0.516141 0.057599
vt 0.556651 0.053339
vt 0.688017 0.168250
vt 0.730733 0.297197
vt 0.663828 0.321428
vt 0.660286 0.406233
vt 0.745464 0.417236
vt 0.697894 0.494983
vt 0.613356 0.453867
vt 0.598626 0.549755
vt 0.561749 0.478015
vt 0.483057 0.528748
vt 0.491436 0.461396
vt 0.412764 0.493772
vt 0.395794 0.395834
vt 0.464108 0.349546
vt 0.524710 0.401444
vt 0.518647 0.285937
vt 0.584594 0.334621
vt 0.503499 0.005871
vt 0.542651 0.000000
vt 0.747891 0.655186
vt 0.729979 0.621766
vt 0.762382 0.605790
vt 0.780706 0.646555
vt 0.041367 0.530350
vt 0.087365 0.533364
vt 0.091872 0.571210
vt 0.040609 0.570209
vt 0.157031 0.544538
vt 0.159576 0.586398
vt 0.094410 0.652339
vt 0.053674 0.654179
vt 0.168179 0.655764
vt 0.777467 0.480612
vt 0.745464 0.466848
vt 0.809510 0.442833
vt 0.042370 0.689128
vt 0.078342 0.769637
vt 0.205077 0.864086
vt 0.098071 0.883412
vt 0.080186 0.804033
vt 0.189836 0.787676
vt 0.324521 0.866648
vt 0.324521 0.981534
vt 0.257948 0.964231
vt 0.118897 0.942572
vt 0.209930 0.916718
vt 0.746090 0.290423
vt 0.873054 0.298180
vt 0.873157 0.385378
vt 0.772029 0.364062
vt 0.749749 0.215850
vt 0.872946 0.206702
vt 0.749615 0.102718
vt 0.872810 0.091286
vt 0.745464 0.025671
vt 0.872702 0.000000
vt 0.722213 0.655963
vt 0.597508 0.644767
vt 0.586860 0.549755
vt 0.709805 0.570497
vt 0.686598 0.904341
vt 0.593309 0.932831
vt 0.599294 0.787911
vt 0.722213 0.780795
vt 0.681000 0.069361
vt 0.745464 0.116819
vt 0.829199 0.712965
vt 0.853614 0.748287
vt 0.741244 0.759339
vt 0.723861 0.714122
vt 0.722213 0.691161
vt 0.805401 0.682090
vt 0.137171 0.757616
vt 0.198416 0.763619
vt 0.134221 0.732418
vt 0.191810 0.712705
vt 0.276023 0.773382
vt 0.247752 0.748842
vt 0.300867 0.744342
vt 0.244728 0.717317
vt 0.395748 0.291109
vt 0.427465 0.287646
vt 0.234029 0.660038
vt 0.226253 0.602383
vt 0.598519 0.012142
vt 0.637630 0.042166
vt 0.473025 0.243258
vt 0.487455 0.139474
vt 0.474362 0.085414
vt 0.294503 0.684135
vt 0.164933 1.000000
vt 0.512569 0.197083
vt 0.444855 0.183149
vt 0.561702 0.147010
vt 0.374320 0.270354
vt 0.395748 0.404476
vt 0.330158 0.326344
vt 0.918404 0.643609
vt 0.884984 0.632164
vt 0.876596 0.593668
vt 0.936692 0.595477
vt 0.395748 0.823625
vt 0.401254 0.772812
vt 0.464326 0.784811
vt 0.488686 0.907423
vt 0.354086 0.127932
vt 0.290309 0.094564
vt 0.317053 0.026205
vt 0.395748 0.088964
vt 0.231715 0.085331
vt 0.198419 0.000000
vt 0.172122 0.120918
vt 0.097891 0.052356
vt 0.106896 0.210869
vt 0.048152 0.106115
vt 0.204842 0.239032
vt 0.239939 0.171686
vt 0.284453 0.286131
vt 0.326072 0.220457
vt 0.814772 0.630945
vt 0.808306 0.593376
vt 0.758862 0.570474
vt 0.810170 0.559836
vt 0.876447 0.549755
vt 0.025038 0.668721
vt 0.008356 0.590933
vt 0.244360 0.530350
vt 0.173236 0.483707
vt 0.199742 0.442291
vt 0.259299 0.484379
vt 0.809510 0.506826
vt 0.109736 0.500341
vt 0.074666 0.415450
vt 0.024702 0.906683
vt 0.000000 0.832508
vt 0.005294 0.180973
vt 0.052508 0.953895
vt 1.000000 0.290150
vt 0.974236 0.363845
vt 0.996165 0.215585
vt 0.996031 0.102453
vt 1.000000 0.025397
vt 0.464326 0.659980
vt 0.458293 0.574415
vt 0.961660 0.679448
vt 0.976242 0.733044
vt 0.892182 0.799536
vt 0.336639 0.718244
vt 0.324521 0.610914
vt 0.354882 0.603254
vt 0.374698 0.662981
vt 0.364619 0.719347
vt 0.130422 0.406043
vt 0.165397 0.391470
vt 0.357828 0.530350
vt 0.374698 0.556587
vt 0.085751 0.362086
vt 0.033356 0.302437
vt 0.145528 0.312175
vt 0.188462 0.308382
vt 0.184396 0.358777
vt 0.156750 0.340334
vt 0.225034 0.402102
vt 0.279706 0.432347
vt 0.392090 0.209442
vt 0.399037 0.683723
vt 0.246738 0.338575
vt 0.941283 0.550255
vt 0.000000 0.259697
vt 0.109385 0.390222
vt 0.118734 0.363290
vt 0.371556 0.719347
vt 0.368055 0.771372
vt 0.326541 0.771372
vt 0.324521 0.746241
vt 0.965402 0.414926
vt 0.873225 0.442833
vt 0.299905 0.372145
vt 0.350833 0.405076
vt 0.324688 0.448254
vt 0.976242 0.617393
vt 0.455578 0.954453
vn 0.8851 -0.4651 0.0169
vn 0.7165 -0.6469 0.2611
vn 0.7117 -0.6424 -0.2843
vn 0.8254 0.0533 -0.5620
vn 0.8307 0.2723 -0.4855
vn 0.8351 0.5094 -0.2076
vn 0.8626 0.5058 -0.0073
vn 0.9733 0.2276 0.0290
vn 0.9992 0.0380 -0.0110
vn 0.9787 0.1614 -0.1269
vn 0.9804 0.0521 -0.1898
vn 0.6021 -0.6671 0.4388
vn 0.2617 -0.8219 0.5060
vn 0.3411 -0.2736 0.8993
vn 0.6251 -0.3172 0.7132
vn 0.2851 -0.0128 0.9584
vn 0.4978 -0.0218 0.8670
vn 0.2783 -0.6182 0.7351
vn 0.8085 0.2976 0.5077
vn 0.2681 0.1765 0.9471
vn 0.7266 0.5945 0.3444
vn 0.2940 0.3602 0.8853
vn 0.2085 0.9460 0.2482
vn 0.2153 0.9739 -0.0719
vn 0.2355 0.8853 -0.4009
vn 0.2237 0.4497 -0.8647
vn 0.2346 -0.0046 -0.9721
vn 0.3288 -0.7570 -0.5646
vn 0.3437 -0.9244 -0.1654
vn 0.2870 -0.9579 -0.0124
vn 0.2444 -0.9669 -0.0726
vn 0.2569 -0.4816 0.8379
vn 0.4754 -0.1610 0.8649
vn 0.5732 0.2253 0.7879
vn 0.3817 0.2631 0.8861
vn 0.6104 -0.3273 0.7213
vn 0.7319 0.2636 0.6284
vn 0.6624 -0.1328 0.7373
vn 0.9359 0.1667 0.3104
vn 0.4975 0.1910 0.8462
vn 0.6316 -0.1105 0.7674
vn 0.2932 -0.9463 -0.1363
vn 0.2499 -0.5457 -0.7999
vn 0.9587 -0.2004 -0.2017
vn 0.9453 -0.3257 -0.0149
vn 0.7586 -0.3547 -0.5465
vn 0.9747 -0.0429 0.2192
vn 0.7332 -0.3732 0.5685
vn 0.7984 -0.0217 0.6017
vn 0.7110 0.4753 0.5182
vn 0.4919 0.0067 0.8706
vn 0.5879 -0.1067 0.8019
vn 0.2542 -0.1002 0.9620
vn 0.2507 0.7799 0.5734
vn 0.8908 -0.1387 0.4327
vn 0.8782 -0.3728 0.2996
vn 0.7123 -0.6915 0.1198
vn 0.8925 -0.4178 -0.1699
vn 0.9643 -0.2346 0.1226
vn 0.7108 -0.6228 -0.3269
vn -0.8851 -0.4651 0.0169
vn -0.7165 -0.6469 0.2611
vn -0.7117 -0.6424 -0.2843
vn -0.8254 0.0533 -0.5620
vn -0.8307 0.2723 -0.4855
vn -0.8351 0.5094 -0.2076
vn -0.8626 0.5058 -0.0073
vn -0.9733 0.2276 0.0290
vn -0.9992 0.0380 -0.0110
vn -0.9787 0.1614 -0.1269
vn -0.9804 0.0521 -0.1898
vn -0.6021 -0.6671 0.4388
vn -0.2617 -0.8219 0.5060
vn -0.3411 -0.2736 0.8993
vn -0.6251 -0.3172 0.7132
vn -0.2851 -0.0128 0.9584
vn -0.4978 -0.0218 0.8670
vn -0.2783 -0.6182 0.7351
vn -0.8085 0.2976 0.5077
vn -0.2681 0.1765 0.9471
vn -0.7266 0.5945 0.3444
vn -0.2940 0.3602 0.8853
vn -0.2085 0.9460 0.2482
vn -0.2153 0.9739 -0.0719
vn -0.2355 0.8853 -0.4009
vn -0.2237 0.4497 -0.8647
vn -0.2346 -0.0046 -0.9721
vn -0.3288 -0.7570 -0.5646
vn -0.3437 -0.9244 -0.1654
vn -0.2870 -0.9579 -0.0124
vn -0.2444 -0.9669 -0.0726
vn -0.2569 -0.4816 0.8379
vn -0.4754 -0.1610 0.8649
vn -0.5732 0.2253 0.7879
vn -0.3817 0.2631 0.8861
vn -0.6104 -0.3273 0.7213
vn -0.7319 0.2636 0.6284
vn -0.6624 -0.1328 0.7373
vn -0.9359 0.1667 0.3104
vn -0.4975 0.1910 0.8462
vn -0.6316 -0.1105 0.7674
vn -0.2932 -0.9463 -0.1363
vn -0.2499 -0.5457 -0.7999
vn -0.9587 -0.2004 -0.2017
vn -0.9453 -0.3257 -0.0149
vn -0.7586 -0.3547 -0.5465
vn -0.9747 -0.0429 0.2192
vn -0.7332 -0.3732 0.5685
vn -0.7984 -0.0217 0.6017
vn -0.7110 0.4753 0.5182
vn -0.4919 0.0067 0.8706
vn -0.5879 -0.1067 0.8019
vn -0.2542 -0.1002 0.9620
vn -0.2507 0.7799 0.5734
vn -0.8908 -0.1387 0.4327
vn -0.8782 -0.3728 0.2996
vn -0.7123 -0.6915 0.1198
vn -0.8925 -0.4178 -0.1699
vn -0.9643 -0.2346 0.1226
vn -0.7108 -0.6228 -0.3269
usemtl None
s 1
f 1/1/1 2/2/1 3/3/1
f 4/4/2 5/5/2 6/6/2 7/7/2
f 1/1/3 8/8/3 9/9/3 10/10/3
f 11/11/4 12/12/4 13/13/4 14/14/4
f 14/14/5 13/13/5 15/15/5 16/16/5
f 16/16/6 15/15/6 17/17/6 18/18/6
f 18/18/7 17/17/7 19/19/7 20/20/7
f 21/21/8 22/22/8 18/18/8 20/20/8
f 23/23/9 24/24/9 22/22/9 21/21/9
f 14/14/10 16/16/10 18/18/10 22/22/10
f 24/24/11 11/11/11 14/14/11 22/22/11
f 7/7/12 6/6/12 25/25/12 26/26/12
f 26/27/13 25/28/13 27/29/13 28/30/13
f 27/31/14 25/32/14 29/33/14 30/34/14
f 25/32/15 6/35/15 31/36/15 29/33/15
f 30/34/16 29/33/16 32/37/16 33/38/16
f 29/33/17 31/36/17 34/39/17 32/37/17
f 33/40/18 32/41/18 35/42/18
f 35/43/19 32/37/19 36/44/19
f 37/45/20 38/46/20 39/47/20 40/48/20
f 20/49/21 19/50/21 41/51/21
f 42/52/22 38/46/22 37/45/22 43/53/22
f 19/54/23 44/55/23 45/56/23 41/57/23
f 17/58/24 46/59/24 44/55/24 19/54/24
f 15/60/25 47/61/25 46/59/25 17/58/25
f 13/62/26 48/63/26 47/61/26 15/60/26
f 12/64/27 49/65/27 48/66/27 13/67/27
f 8/68/28 50/69/28 51/70/28 9/71/28
f 3/3/29 52/72/29 50/73/29 8/8/29
f 53/74/30 52/75/30 3/76/30 4/77/30
f 7/78/31 26/27/31 28/30/31 54/79/31
f 39/47/32 55/80/32 56/81/32 40/48/32
f 55/80/33 39/47/33 36/44/33
f 36/44/34 32/37/34 57/82/34
f 34/39/35 58/83/35 57/82/35 32/37/35
f 59/84/36 40/48/36 56/81/36 60/85/36
f 40/48/37 59/84/37 20/49/37 37/45/37
f 61/86/38 59/84/38 60/85/38 62/87/38
f 21/21/39 20/20/39 59/88/39 61/89/39
f 62/87/40 58/83/40 34/39/40 63/90/40
f 64/91/41 63/90/41 34/39/41 31/36/41
f 54/92/42 53/93/42 4/4/42 7/7/42
f 9/71/43 51/70/43 49/65/43 12/64/43
f 1/1/44 10/10/44 11/11/44 24/24/44
f 2/2/45 1/1/45 24/24/45 23/23/45
f 10/10/46 9/9/46 12/12/46 11/11/46
f 23/23/47 21/21/47 61/89/47 65/94/47
f 5/5/48 64/95/48 31/96/48 6/6/48
f 61/86/49 62/87/49 63/90/49 65/97/49
f 37/45/50 20/49/50 41/51/50 43/53/50
f 57/82/51 55/80/51 36/44/51
f 62/87/52 60/85/52 56/81/52 58/83/52
f 56/81/53 55/80/53 57/82/53 58/83/53
f 45/98/54 42/52/54 43/53/54 41/51/54
f 64/95/55 66/99/55 65/94/55 63/100/55
f 67/101/56 66/99/56 64/95/56 5/5/56
f 3/3/57 67/101/57 5/5/57 4/4/57
f 3/3/58 2/2/58 66/99/58 67/101/58
f 65/94/59 66/99/59 2/2/59 23/23/59
f 8/8/60 1/1/60 3/3/60
f 68/102/61 69/103/61 70/104/61
f 71/105/62 72/106/62 73/107/62 74/108/62
f 68/109/63 75/110/63 76/111/63 77/112/63
f 78/113/64 79/114/64 80/115/64 81/116/64
f 79/114/65 82/117/65 83/118/65 80/115/65
f 82/117/66 84/119/66 85/120/66 83/118/66
f 84/119/67 86/121/67 87/122/67 85/120/67
f 88/123/68 86/121/68 84/119/68 89/124/68
f 90/125/69 88/123/69 89/124/69 91/126/69
f 79/114/70 89/124/70 84/119/70 82/117/70
f 91/126/71 89/124/71 79/114/71 78/113/71
f 72/106/72 92/127/72 93/128/72 73/107/72
f 92/127/73 28/30/73 27/29/73 93/128/73
f 27/29/74 30/129/74 94/130/74 93/128/74
f 93/128/75 94/130/75 95/131/75 73/107/75
f 30/34/76 33/38/76 96/132/76 94/133/76
f 94/134/77 96/135/77 97/136/77 95/137/77
f 33/40/78 35/42/78 96/138/78
f 35/139/79 36/140/79 96/135/79
f 98/141/80 99/142/80 39/47/80 38/46/80
f 86/121/81 100/143/81 87/122/81
f 42/52/82 101/144/82 98/141/82 38/46/82
f 87/145/83 100/146/83 45/56/83 44/55/83
f 85/147/84 87/145/84 44/55/84 46/59/84
f 83/148/85 85/147/85 46/59/85 47/61/85
f 80/149/86 83/148/86 47/61/86 48/63/86
f 81/150/87 80/151/87 48/66/87 49/65/87
f 77/112/88 76/111/88 51/70/88 50/69/88
f 69/152/89 77/153/89 50/154/89 52/75/89
f 53/74/90 71/105/90 69/152/90 52/75/90
f 72/106/91 54/79/91 28/30/91 92/127/91
f 39/155/92 99/156/92 102/157/92 103/158/92
f 103/158/93 36/159/93 39/155/93
f 36/140/94 104/160/94 96/135/94
f 97/136/95 96/135/95 104/160/95 105/161/95
f 106/162/96 107/163/96 102/157/96 99/156/96
f 99/164/97 98/165/97 86/121/97 106/166/97
f 108/167/98 109/168/98 107/169/98 106/166/98
f 88/123/99 108/167/99 106/166/99 86/121/99
f 109/168/100 110/170/100 97/136/100 105/161/100
f 111/171/101 95/137/101 97/136/101 110/170/101
f 54/79/102 72/106/102 71/105/102 53/74/102
f 76/111/103 81/150/103 49/65/103 51/70/103
f 68/102/104 91/126/104 78/113/104 75/172/104
f 70/104/105 90/125/105 91/126/105 68/102/105
f 75/110/106 78/173/106 81/150/106 76/111/106
f 90/125/107 112/174/107 108/167/107 88/123/107
f 74/108/108 73/107/108 95/131/108 111/175/108
f 108/167/109 112/174/109 110/170/109 109/168/109
f 98/165/110 101/176/110 100/143/110 86/121/110
f 104/160/111 36/140/111 103/177/111
f 109/168/112 105/161/112 102/178/112 107/169/112
f 102/179/113 105/180/113 104/181/113 103/182/113
f 45/56/114 100/146/114 101/183/114 42/184/114
f 111/171/115 110/170/115 112/174/115 113/185/115
f 114/186/116 74/187/116 111/171/116 113/185/116
f 69/152/117 71/105/117 74/108/117 114/188/117
f 69/103/118 114/186/118 113/185/118 70/104/118
f 112/174/119 90/125/119 70/104/119 113/185/119
f 77/112/120 69/189/120 68/109/120
